<?xml version="1.0" standalone="no"?>
<!DOCTYPE svg PUBLIC "-//W3C//DTD SVG 20010904//EN"
 "http://www.w3.org/TR/2001/REC-SVG-20010904/DTD/svg10.dtd">
<svg version="1.0" xmlns="http://www.w3.org/2000/svg"
 width="144.000000pt" height="144.000000pt" viewBox="0 0 144.000000 144.000000"
 preserveAspectRatio="xMidYMid meet">
<metadata>
Created by potrace 1.11, written by Peter Selinger 2001-2013
</metadata>
<g transform="translate(0.000000,144.000000) scale(0.100000,-0.100000)"
fill="#000000" stroke="none">
<path d="M655 1307 c-78 -20 -169 -74 -234 -139 l-59 -59 -32 16 c-19 10 -38
31 -47 52 -10 25 -17 32 -23 24 -11 -19 7 -88 35 -129 36 -53 33 -62 -18 -58
-44 5 -116 -8 -155 -27 -20 -9 -28 -6 -67 33 -25 24 -47 41 -51 38 -3 -4 9
-37 27 -74 39 -79 122 -165 184 -191 l44 -18 0 -70 c0 -38 2 -79 5 -90 2 -11
6 -37 10 -58 9 -50 67 -176 103 -224 136 -183 330 -254 484 -179 177 87 338
359 334 564 -1 39 1 43 34 53 55 18 147 117 182 195 17 36 29 70 27 76 -2 5
-23 -11 -47 -37 -29 -31 -47 -43 -54 -37 -18 14 -112 34 -143 30 -43 -5 -53
23 -25 72 23 41 36 116 21 125 -4 2 -12 -13 -18 -34 -15 -47 -54 -70 -74 -42
-106 151 -287 227 -443 188z"/>
</g>
</svg>
